<?xml version="1.0" standalone="no"?>
<!DOCTYPE svg PUBLIC "-//W3C//DTD SVG 20010904//EN"
 "http://www.w3.org/TR/2001/REC-SVG-20010904/DTD/svg10.dtd">
<svg version="1.0" xmlns="http://www.w3.org/2000/svg"
 width="288.000000pt" height="288.000000pt" viewBox="0 0 288.000000 288.000000"
 preserveAspectRatio="xMidYMid meet">

<g transform="translate(0.000000,288.000000) scale(0.100000,-0.100000)"
fill="#ffffff" stroke="none">
<path d="M1485 2805 c-16 -16 -25 -36 -25 -57 0 -60 -9 -72 -68 -96 -31 -13
-64 -26 -73 -28 -9 -3 -34 10 -58 30 -62 52 -82 48 -158 -27 -77 -77 -81 -103
-28 -167 l35 -41 -19 -37 c-10 -20 -24 -53 -30 -73 -11 -35 -14 -37 -69 -44
-85 -10 -92 -20 -92 -132 l0 -93 229 0 229 0 4 88 c5 95 18 131 69 181 43 43
82 62 144 68 66 7 117 -10 167 -55 58 -53 80 -102 86 -199 l5 -83 228 0 229 0
0 88 c0 110 -7 121 -89 136 l-62 11 -25 60 c-14 33 -27 65 -30 71 -3 6 11 30
31 53 54 65 49 91 -29 168 -77 74 -94 77 -160 27 l-47 -36 -57 25 c-31 13 -64
27 -73 30 -12 4 -18 22 -21 63 -7 81 -25 94 -135 94 -76 0 -86 -2 -108 -25z"/>
<path d="M325 2120 c-44 -18 -70 -59 -70 -112 0 -44 4 -53 37 -84 36 -33 41
-34 117 -34 l79 0 15 -37 c8 -21 79 -207 158 -413 115 -302 149 -381 175 -407
l32 -33 498 0 c275 0 517 -5 538 -10 78 -18 118 -99 82 -168 -33 -64 -13 -62
-681 -62 -534 0 -611 -2 -640 -16 -88 -42 -92 -156 -8 -211 25 -17 72 -18 663
-18 l635 0 60 24 c117 47 207 163 225 288 13 95 -19 208 -81 285 l-22 26 153
274 c86 155 154 289 157 309 6 43 -16 91 -54 116 -25 17 -86 18 -831 23 l-804
5 -37 95 c-65 170 -66 170 -248 169 -70 0 -137 -4 -148 -9z"/>
<path d="M1052 350 c-90 -55 -99 -194 -16 -259 66 -52 155 -47 212 12 58 60
63 145 11 211 -45 58 -143 75 -207 36z"/>
<path d="M1720 348 c-76 -52 -98 -125 -61 -202 53 -109 201 -122 274 -24 28
38 34 116 12 162 -39 82 -152 113 -225 64z"/>
</g>
</svg>
